<svg width="35" height="35" viewBox="0 0 35 35" fill="none" xmlns="http://www.w3.org/2000/svg">
<g clip-path="url(#clip0_1_435)">
<path d="M17.0632 1.37587H17.1894C20.2331 1.37587 23.0813 2.20806 25.5209 3.6566L25.4462 3.61451C27.9862 5.0997 30.043 7.15643 31.4861 9.61771L31.5281 9.69645C32.94 12.098 33.7736 14.9856 33.7736 18.0673C33.7736 25.4063 29.0451 31.643 22.469 33.8939L22.3509 33.9292C22.2654 33.9563 22.1677 33.9713 22.0672 33.9713C21.8473 33.9713 21.6436 33.8979 21.4794 33.7758L21.4821 33.7771C21.3083 33.621 21.1997 33.3956 21.1997 33.1445C21.1997 33.1377 21.1997 33.1309 21.1997 33.1255V33.1268C21.1997 33.0834 21.2033 32.5286 21.2106 31.4625C21.2178 30.3963 21.2214 29.4216 21.2214 28.5382C21.2309 28.4364 21.2364 28.3197 21.2364 28.2002C21.2364 27.125 20.7979 26.153 20.0906 25.4511C20.9296 25.3683 21.6871 25.2298 22.4229 25.0371L22.3197 25.0601C23.0976 24.8429 23.7764 24.5538 24.4063 24.1886L24.3642 24.2116C25.0539 23.8315 25.6376 23.3482 26.1182 22.7753L26.1263 22.7658C26.6314 22.1196 27.0264 21.3594 27.2667 20.5326L27.2789 20.4851C27.5627 19.5579 27.7256 18.4922 27.7256 17.3885C27.7256 17.3274 27.7256 17.2649 27.7242 17.2038V17.2133C27.7242 17.1835 27.7256 17.1495 27.7256 17.1156C27.7256 15.4213 27.0712 13.8805 26.0028 12.7306L26.0069 12.7347C26.235 12.1374 26.3666 11.4477 26.3666 10.7269C26.3666 9.84578 26.1698 9.01223 25.8182 8.26421L25.8331 8.2995C25.677 8.26964 25.4991 8.25199 25.3159 8.25199C24.8624 8.25199 24.4348 8.35788 24.0547 8.54523L24.071 8.53844C23.2999 8.82353 22.6401 9.14663 22.0183 9.52404L22.0699 9.49417L21.2432 10.0155C19.9915 9.65708 18.5538 9.45073 17.0686 9.45073C15.5834 9.45073 14.1457 9.65708 12.7827 10.0426L12.8927 10.0155C12.661 9.85619 12.3528 9.66025 11.9682 9.42765C11.4618 9.13713 10.8631 8.85611 10.2414 8.61989L10.1518 8.59003C9.75399 8.38096 9.28291 8.25878 8.78196 8.25878C8.61362 8.25878 8.448 8.27235 8.2878 8.2995L8.30545 8.29679C7.96877 9.00816 7.77193 9.84307 7.77193 10.7241C7.77193 11.445 7.90361 12.136 8.14526 12.7727L8.13168 12.7333C7.06599 13.8791 6.41299 15.42 6.41299 17.1142C6.41299 17.1482 6.41299 17.1835 6.41435 17.2174V17.212C6.41299 17.2649 6.41299 17.326 6.41299 17.3885C6.41299 18.4868 6.5759 19.5484 6.88 20.5476L6.85963 20.4702C7.11622 21.3431 7.50584 22.102 8.01357 22.7685L8.00136 22.7509C8.48194 23.3414 9.06298 23.8275 9.72141 24.1926L9.75127 24.2076C10.3377 24.5497 11.0179 24.8388 11.7333 25.0411L11.7958 25.0561C12.4284 25.2258 13.1859 25.3642 13.9611 25.4416L14.0236 25.447C13.4384 26.0281 13.0488 26.8046 12.9592 27.6708L12.9579 27.687C12.6768 27.8242 12.3497 27.9355 12.0089 28.0074L11.9804 28.0129C11.6329 28.0821 11.2351 28.1215 10.8265 28.1215C10.7966 28.1215 10.7667 28.1215 10.7369 28.1215H10.7409C10.2061 28.1106 9.71462 27.9368 9.3087 27.649L9.31685 27.6545C8.81319 27.3028 8.40591 26.8467 8.12082 26.3159L8.11132 26.2955C7.84252 25.8394 7.48819 25.462 7.0687 25.1728L7.05648 25.1647C6.75103 24.9352 6.39127 24.756 6.003 24.6488L5.98128 24.6434L5.54686 24.5782C5.51564 24.5755 5.47898 24.5741 5.44233 24.5741C5.25226 24.5741 5.07171 24.6121 4.90744 24.6787L4.91694 24.6746C4.8011 24.7397 4.7649 24.823 4.80834 24.9244C4.86128 25.0411 4.92645 25.1416 5.00519 25.2298L5.00383 25.2285C5.08664 25.3262 5.18031 25.4117 5.28213 25.4864L5.2862 25.4891L5.43825 25.5977C5.82245 25.7987 6.13876 26.0783 6.37905 26.4164L6.38448 26.4245C6.64378 26.7462 6.87185 27.1101 7.05513 27.4997L7.0687 27.5323L7.28591 28.0319C7.46919 28.5776 7.80179 29.0338 8.23622 29.3636L8.243 29.3691C8.65028 29.6868 9.14172 29.9148 9.67796 30.018L9.69968 30.0207C10.1477 30.1076 10.669 30.1619 11.2012 30.1728H11.2107C11.2718 30.1755 11.3424 30.1755 11.4143 30.1755C11.7686 30.1755 12.1162 30.147 12.4556 30.0913L12.4189 30.0967L12.9185 30.0099C12.9185 30.561 12.9221 31.2027 12.9294 31.9349C12.9366 32.6671 12.9402 33.0621 12.9402 33.1201V33.1391C12.9402 33.3902 12.8316 33.6156 12.6578 33.7717H12.6565C12.4949 33.8925 12.2927 33.9658 12.0714 33.9658C11.9696 33.9658 11.8718 33.9509 11.7808 33.9224L11.7876 33.9237C5.09614 31.6308 0.37178 25.3941 0.37178 18.0537C0.37178 14.9747 1.20262 12.0899 2.65387 9.61092L2.61042 9.68966C4.09561 7.14964 6.15234 5.09291 8.61362 3.64981L8.69236 3.60772C11.0532 2.20399 13.8987 1.37451 16.9369 1.37451H17.07H17.0632V1.37587ZM6.6913 25.3588C6.73474 25.2574 6.68405 25.1706 6.53925 25.0981C6.39444 25.0547 6.30031 25.0692 6.25687 25.1416C6.21343 25.243 6.26411 25.3298 6.40892 25.4022C6.53925 25.4891 6.63337 25.4746 6.6913 25.3588ZM7.36601 26.0987C7.46738 26.0263 7.4529 25.9104 7.32257 25.7511C7.17776 25.6208 7.06191 25.5991 6.97503 25.686C6.87366 25.7584 6.88814 25.8742 7.01847 26.0335C7.16237 26.1756 7.27822 26.1969 7.36601 26.0973V26.0987ZM8.01765 27.0761C8.14797 26.9748 8.14797 26.8372 8.01765 26.6634C7.9018 26.4752 7.77871 26.4317 7.64839 26.5331C7.51806 26.6055 7.51806 26.7358 7.64839 26.9241C7.77871 27.1123 7.9018 27.163 8.01765 27.0761ZM8.92994 27.9898C9.04578 27.8739 9.01682 27.7364 8.84305 27.5771C8.66928 27.4033 8.52448 27.3816 8.40863 27.5119C8.2783 27.6278 8.30726 27.7653 8.49551 27.9246C8.66928 28.0984 8.81409 28.1183 8.92994 27.9844V27.9898ZM10.1694 28.5328C10.2128 28.3735 10.1187 28.2577 9.88703 28.1853C9.66982 28.1273 9.53225 28.178 9.47433 28.3373C9.4164 28.4966 9.51053 28.6052 9.7567 28.6631C9.97391 28.7509 10.1115 28.7075 10.1694 28.5328ZM11.5392 28.6414C11.5392 28.4532 11.4161 28.3735 11.1699 28.4025C10.9382 28.4025 10.8224 28.4821 10.8224 28.6414C10.8224 28.8297 10.9455 28.9093 11.1917 28.8804C11.4234 28.8813 11.5392 28.8021 11.5392 28.6428V28.6414ZM12.8004 28.4242C12.7714 28.2649 12.6411 28.1998 12.4094 28.2287C12.1777 28.2722 12.0763 28.3808 12.1053 28.5545C12.1343 28.7283 12.2646 28.7862 12.4963 28.7283C12.728 28.6704 12.8298 28.569 12.8017 28.4242H12.8004Z" fill="#21DC97"/>
</g>
<defs>
<clipPath id="clip0_1_435">
<rect width="33.9394" height="33.9394" fill="white" transform="translate(0.363632 0.697021)"/>
</clipPath>
</defs>
</svg>
