<svg width="34" height="34" viewBox="0 0 34 34" fill="none" xmlns="http://www.w3.org/2000/svg">
<g clip-path="url(#clip0_1_430)">
<path d="M7.93053 10.9187H1.11714C0.814753 10.9187 0.569733 11.1638 0.569733 11.4661V33.3546C0.569733 33.657 0.814753 33.902 1.11714 33.902H7.93053C8.23292 33.902 8.47794 33.657 8.47794 33.3546V11.4661C8.47794 11.1638 8.23292 10.9187 7.93053 10.9187Z" fill="#29C2CB"/>
<path d="M4.52629 0.0373535C2.04718 0.0373535 0.030304 2.05204 0.030304 4.52841C0.030304 7.00588 2.04718 9.02133 4.52629 9.02133C7.00343 9.02133 9.01866 7.00577 9.01866 4.52841C9.01877 2.05204 7.00343 0.0373535 4.52629 0.0373535Z" fill="#29C2CB"/>
<path d="M25.2609 10.3746C22.5244 10.3746 20.5015 11.551 19.2745 12.8877V11.4661C19.2745 11.1638 19.0295 10.9186 18.7271 10.9186H12.2021C11.8997 10.9186 11.6547 11.1638 11.6547 11.4661V33.3546C11.6547 33.6569 11.8997 33.902 12.2021 33.902H19.0006C19.303 33.902 19.548 33.6569 19.548 33.3546V22.5248C19.548 18.8755 20.5392 17.4537 23.0832 17.4537C25.8537 17.4537 26.0739 19.7329 26.0739 22.7126V33.3547C26.0739 33.6571 26.3189 33.9021 26.6213 33.9021H33.4223C33.7247 33.9021 33.9697 33.6571 33.9697 33.3547V21.3484C33.9697 15.922 32.935 10.3746 25.2609 10.3746Z" fill="#29C2CB"/>
</g>
<defs>
<clipPath id="clip0_1_430">
<rect width="33.9394" height="33.9394" fill="white" transform="translate(0.030304)"/>
</clipPath>
</defs>
</svg>
