<svg width="36" height="37" viewBox="0 0 36 37" fill="none" xmlns="http://www.w3.org/2000/svg">
<g clip-path="url(#clip0_1_437)">
<path d="M32.0727 3.95752H3.56364C1.59535 3.95752 0 5.55287 0 7.52116V28.903C0 30.8713 1.59535 32.4666 3.56364 32.4666H32.0727C34.041 32.4666 35.6364 30.8713 35.6364 28.903V7.52116C35.6364 5.55287 34.041 3.95752 32.0727 3.95752ZM1.78182 10.7469L12.4466 18.2121L1.78182 25.6779V10.7469ZM33.8545 28.903C33.8545 29.8853 33.0551 30.6848 32.0727 30.6848H3.56364C2.58127 30.6848 1.78182 29.8853 1.78182 28.903V27.8517L14.0004 19.299L17.3068 21.6135C17.6163 21.8292 18.0202 21.8292 18.3302 21.6135L21.6366 19.299L33.8545 27.8517V28.903ZM33.8545 25.6773L23.1897 18.2121L33.8545 10.7462V25.6773ZM33.8545 8.57243L17.8182 19.7973L1.78182 8.57243V7.52116C1.78182 6.53879 2.58127 5.73934 3.56364 5.73934H32.0727C33.0551 5.73934 33.8545 6.53879 33.8545 7.52116V8.57243Z" fill="#29C2CB" stroke="#29C2CB"/>
</g>
<defs>
<clipPath id="clip0_1_437">
<rect width="35.6364" height="35.6364" fill="white" transform="translate(0 0.393921)"/>
</clipPath>
</defs>
</svg>
