<svg width="27" height="41" viewBox="0 0 27 41" fill="none" xmlns="http://www.w3.org/2000/svg">
<path d="M13.4529 0.829102C6.197 0.829102 0.294006 6.73209 0.294006 13.9879C0.294006 15.9667 0.722622 17.8684 1.56761 19.6416C1.58462 19.6795 1.60248 19.7168 1.62153 19.754L11.5637 39.0041C11.9287 39.7107 12.6575 40.1546 13.4527 40.1546C14.248 40.1546 14.9768 39.7108 15.3417 39.0041L25.2811 19.7593C25.2983 19.7261 25.3143 19.6926 25.3296 19.6588C26.1802 17.8805 26.6114 15.973 26.6114 13.9879C26.6117 6.73209 20.7087 0.829102 13.4529 0.829102ZM13.4529 20.8756C9.65502 20.8756 6.56524 17.7858 6.56524 13.9879C6.56524 10.1903 9.65502 7.1005 13.4529 7.1005C17.2507 7.1005 20.3405 10.1903 20.3405 13.9879C20.3405 17.7858 17.2507 20.8756 13.4529 20.8756Z" fill="white"/>
</svg>
