<svg width="45" height="46" viewBox="0 0 45 46" fill="none" xmlns="http://www.w3.org/2000/svg">
<g clip-path="url(#clip0_1_548)">
<path d="M22.4529 0.829102C15.197 0.829102 9.29401 6.73209 9.29401 13.9879C9.29401 15.9667 9.72262 17.8684 10.5676 19.6416C10.5846 19.6795 10.6025 19.7168 10.6215 19.754L20.5637 39.0041C20.9287 39.7107 21.6575 40.1546 22.4527 40.1546C23.248 40.1546 23.9768 39.7108 24.3417 39.0041L34.2811 19.7593C34.2983 19.7261 34.3143 19.6926 34.3296 19.6588C35.1802 17.8805 35.6114 15.973 35.6114 13.9879C35.6117 6.73209 29.7087 0.829102 22.4529 0.829102ZM22.4529 20.8756C18.655 20.8756 15.5652 17.7858 15.5652 13.9879C15.5652 10.1903 18.655 7.1005 22.4529 7.1005C26.2507 7.1005 29.3405 10.1903 29.3405 13.9879C29.3405 17.7858 26.2507 20.8756 22.4529 20.8756Z" fill="white"/>
<path d="M27.5215 43.1835H17.3841C16.6794 43.1835 16.1085 43.7544 16.1085 44.4591C16.1085 45.1638 16.6794 45.7348 17.3841 45.7348H27.5215C28.2262 45.7348 28.7972 45.1638 28.7972 44.4591C28.7972 43.7544 28.226 43.1835 27.5215 43.1835Z" fill="white"/>
</g>
<defs>
<clipPath id="clip0_1_548">
<rect width="44.9057" height="44.9057" fill="white" transform="translate(0 0.829102)"/>
</clipPath>
</defs>
</svg>
