<svg width="32" height="35" viewBox="0 0 32 35" fill="none" xmlns="http://www.w3.org/2000/svg">
<path d="M31.6569 26.6145C30.4657 24.2216 26.3292 21.6269 26.1471 21.5134C25.6156 21.1919 25.0609 21.0217 24.5418 21.0217C23.77 21.0217 23.1383 21.3974 22.7556 22.0808C22.1505 22.8498 21.4001 23.7488 21.218 23.8881C19.8085 24.9043 18.7051 24.7889 17.4843 23.4916L10.6705 16.2503C9.45738 14.9611 9.34585 13.7741 10.2956 12.2845C10.4285 12.0897 11.2744 11.2917 11.9981 10.648C12.4597 10.3562 12.7765 9.92245 12.9153 9.39041C13.0998 8.68248 12.9639 7.84974 12.5285 7.03843C12.4259 6.85183 9.98297 2.4555 7.73229 1.19031C7.31229 0.953918 6.83889 0.829102 6.36432 0.829102C5.58245 0.829102 4.84686 1.15312 4.29397 1.74001L2.78838 3.33931C0.407185 5.86906 -0.454767 8.73669 0.225065 11.8622C0.792185 14.4669 2.4449 17.2387 5.13813 20.1001L13.8615 29.3699C17.2701 32.9921 20.5198 34.8291 23.5203 34.8291C23.5203 34.8291 23.5203 34.8291 23.5209 34.8291C25.7277 34.8291 27.785 33.8325 29.634 31.8675L31.139 30.2682C32.0538 29.2968 32.2614 27.828 31.6569 26.6145Z" fill="white"/>
</svg>
