<svg width="34" height="35" viewBox="0 0 34 35" fill="none" xmlns="http://www.w3.org/2000/svg">
<g clip-path="url(#clip0_1_441)">
<path d="M13.0771 21.6733C16.1213 24.6951 19.6448 27.5818 21.0281 26.188C23.0087 24.1928 24.2279 22.457 28.623 25.9621C33.0181 29.469 29.6615 31.829 27.7431 33.7623C25.5295 35.9927 17.2382 33.9186 9.01974 25.7625C0.801803 17.6047 -1.33564 9.32963 0.879671 7.09812C2.79856 5.16475 5.13345 1.7914 8.67089 6.16092C12.21 10.5282 10.4835 11.7607 8.50288 13.7564C7.12023 15.1497 10.0325 18.651 13.0771 21.6733ZM17.4912 7.25721C17.4912 7.25721 16.5729 7.11374 15.9299 7.75722C15.2681 8.4191 15.2392 9.55931 15.9367 10.2562C16.3488 10.6684 16.93 10.7562 16.93 10.7562C18.0631 10.9687 19.7706 11.3285 21.5877 13.1451C23.4043 14.9616 23.7641 16.6691 23.9766 17.8027C23.9766 17.8027 24.0644 18.3839 24.4766 18.7961C25.1736 19.493 26.3137 19.4647 26.9756 18.8028C27.6186 18.1599 27.4756 17.2416 27.4756 17.2416C27.1158 14.9467 26.0034 12.5495 24.0933 10.6395C22.1828 8.7295 19.7855 7.6176 17.4912 7.25721ZM26.105 8.62767C29.4356 11.9582 30.8556 15.7382 30.3933 18.8011C30.3933 18.8011 30.232 19.7711 30.8655 20.4046C31.5786 21.1177 32.7088 21.0766 33.3762 20.4097C33.8051 19.9809 33.8985 19.2828 33.8985 19.2828C34.2806 16.6359 33.8001 11.3108 28.6107 6.12207C23.4214 0.933219 18.0969 0.452679 15.4499 0.834248C15.4499 0.834248 14.7524 0.927166 14.323 1.3565C13.6556 2.02394 13.615 3.15417 14.328 3.86717C14.9616 4.50075 15.9315 4.33937 15.9315 4.33937C18.9946 3.87715 22.7745 5.29718 26.105 8.62767Z" fill="#29C2CB"/>
</g>
<defs>
<clipPath id="clip0_1_441">
<rect width="33.9394" height="33.9394" fill="white" transform="translate(0.0605927 0.697021)"/>
</clipPath>
</defs>
</svg>
